<svg width="20" height="20" viewBox="0 0 20 20" fill="none" xmlns="http://www.w3.org/2000/svg">
<path fill-rule="evenodd" clip-rule="evenodd" d="M1.875 10C1.875 5.51269 5.51269 1.875 10 1.875C14.4874 1.875 18.125 5.51269 18.125 10C18.125 14.4874 14.4874 18.125 10 18.125C5.51269 18.125 1.875 14.4874 1.875 10ZM10 0C4.47715 0 0 4.47715 0 10C0 15.5229 4.47715 20 10 20C15.5229 20 20 15.5229 20 10C20 4.47715 15.5229 0 10 0Z" fill="inherit"/>
<path d="M10 5C10.5178 5 10.9375 5.41974 10.9375 5.9375V9.0625H14.0625C14.5802 9.0625 15 9.48224 15 10C15 10.5178 14.5802 10.9375 14.0625 10.9375H10.9375V14.0625C10.9375 14.5802 10.5178 15 10 15C9.48224 15 9.0625 14.5802 9.0625 14.0625V10.9375H5.9375C5.41974 10.9375 5 10.5178 5 10C5 9.48224 5.41974 9.0625 5.9375 9.0625H9.0625V5.9375C9.0625 5.41974 9.48224 5 10 5Z" fill="inherit"/>
</svg>
